General
Format : Matroska
File size : 12.2 GiB
Duration : 2 h 16 min
Overall bit rate : 12.9 Mb/s
Video
Format : AVC
Format/Info : Advanced Video Codec
Format profile : High@L4.1
Codec ID : V_MPEG4/ISO/AVC
Duration : 2 h 16 min
Bit rate : 11.0 Mb/s
Width : 1920 pixels
Height : 800 pixels
Display aspect ratio : 2.40:1
Frame rate mode : Constant
Frame rate : 23.976 FPS
Color space : YUV
Chroma subsampling : 4:2:0
Bit depth : 8 bits
Scan type : Progressive
Bits/(Pixel*Frame) : 0.298
Stream size : 10.2 GiB (83%)
Writing library : x264 core 116 r2044
Audio #1
Format : AC-3
Format/Info : Audio Coding 3
Mode extension : CM (complete main)
Format settings, Endianness : Big
Muxing mode : Header stripping
Codec ID : A_AC3
Duration : 2 h 16 min
Bit rate mode : Constant
Bit rate : 384 kb/s
Channel(s) : 6 channels
Channel positions : Front: L C R, Side: L R, LFE
Sampling rate : 48.0 kHz
Bit depth : 16 bits
Compression mode : Lossy
Stream size : 375 MiB (3%)
Language : Spanish
Audio #2
Format : DTS
Format/Info : Digital Theater Systems
Mode : 16
Format settings, Endianness : Big
Muxing mode : Header stripping
Codec ID : A_DTS
Duration : 2 h 16 min
Bit rate mode : Constant
Bit rate : 1509 kb/s
Channel(s) : 6 channels
Channel positions : Front: L C R, Side: L R, LFE
Sampling rate : 48.0 kHz
Bit depth : 24 bits
Compression mode : Lossy
Stream size : 1.44 GiB (12%)
Language : English
Text
Format : UTF-8
Codec ID : S_TEXT/UTF8
Codec ID/Info : UTF-8 Plain Text
Title : Mínimos
Language : Spanish
Default : Yes
Forced : Yes

Enjoy and seed!